<?xml version="1.0" encoding="utf-8"?>
<!-- Generator: Adobe Illustrator 24.3.2, SVG Export Plug-In . SVG Version: 6.00 Build 0)  -->
<svg version="1.1" id="Layer_1" xmlns="http://www.w3.org/2000/svg" xmlns:xlink="http://www.w3.org/1999/xlink" x="0px" y="0px"
	 viewBox="0 0 90 90" style="enable-background:new 0 0 90 90;" xml:space="preserve">
<style type="text/css">
	.st0{fill:#FFFFFF;}
</style>
<g>
	<path class="st0" d="M45,30.2c-8.2,0-14.8,6.6-14.8,14.8S36.8,59.8,45,59.8S59.8,53.2,59.8,45S53.2,30.2,45,30.2z M45,54.6
		c-5.3,0-9.6-4.3-9.6-9.6c0-5.3,4.3-9.6,9.6-9.6c5.3,0,9.6,4.3,9.6,9.6C54.6,50.3,50.3,54.6,45,54.6z"/>
	<path class="st0" d="M60.4,26.1c-1.9,0-3.5,1.6-3.5,3.5s1.6,3.5,3.5,3.5c1.9,0,3.5-1.6,3.5-3.5S62.3,26.1,60.4,26.1z"/>
	<path class="st0" d="M45,0C20.1,0,0,20.1,0,45s20.1,45,45,45s45-20.1,45-45S69.9,0,45,0z M73.7,56.9c-0.1,3.1-0.6,5.2-1.3,7
		c-1.5,3.9-4.6,6.9-8.4,8.4c-1.8,0.7-3.9,1.2-7,1.3c-3.1,0.1-4.1,0.2-11.9,0.2s-8.8,0-11.9-0.2c-3.1-0.1-5.2-0.6-7-1.3
		c-1.9-0.7-3.7-1.9-5.1-3.3c-1.5-1.4-2.6-3.2-3.3-5.1c-0.7-1.8-1.2-3.9-1.3-7c-0.1-3.1-0.2-4.1-0.2-11.9s0-8.8,0.2-11.9
		c0.1-3.1,0.6-5.2,1.3-7c0.7-1.9,1.9-3.7,3.3-5.1c1.4-1.5,3.2-2.6,5.1-3.3c1.8-0.7,3.9-1.2,7-1.3c3.1-0.1,4.1-0.2,11.9-0.2
		s8.8,0,11.9,0.2c3.1,0.1,5.2,0.6,7,1.3c1.9,0.7,3.7,1.9,5.1,3.3c1.5,1.4,2.6,3.2,3.3,5.1c0.7,1.8,1.2,3.9,1.3,7
		c0.1,3.1,0.2,4.1,0.2,11.9S73.8,53.8,73.7,56.9z"/>
</g>
</svg>
