<?xml version="1.0" encoding="utf-8"?>
<!-- Generator: Adobe Illustrator 24.3.2, SVG Export Plug-In . SVG Version: 6.00 Build 0)  -->
<svg version="1.1" id="Layer_1" xmlns="http://www.w3.org/2000/svg" xmlns:xlink="http://www.w3.org/1999/xlink" x="0px" y="0px"
	 viewBox="0 0 90 90" style="enable-background:new 0 0 90 90;" xml:space="preserve">
<style type="text/css">
	.st0{fill:#FFFFFF;}
</style>
<path class="st0" d="M45,0C20.1,0,0,20.1,0,45s20.1,45,45,45s45-20.1,45-45S69.9,0,45,0z M66,34.2c0,0.5,0,0.9,0,1.4
	c0,14.3-10.9,30.9-30.9,30.9c-5.9,0-11.7-1.7-16.6-4.9c0.9,0.1,1.7,0.2,2.6,0.2c4.9,0,9.6-1.6,13.5-4.7C30,57,25.9,54,24.5,49.6
	c1.6,0.3,3.3,0.2,4.9-0.2c-5.1-1-8.7-5.5-8.7-10.6v-0.1c1.5,0.8,3.2,1.3,4.9,1.4c-4.8-3.2-6.2-9.5-3.4-14.5
	c5.5,6.8,13.6,10.9,22.4,11.3c-0.9-3.8,0.3-7.7,3.1-10.4c4.4-4.1,11.2-3.9,15.4,0.5c2.4-0.5,4.8-1.4,6.9-2.6c-0.8,2.5-2.5,4.6-4.8,6
	c2.2-0.3,4.3-0.8,6.2-1.7C70,30.8,68.2,32.7,66,34.2z"/>
</svg>
