<?xml version="1.0" encoding="utf-8"?>
<!-- Generator: Adobe Illustrator 24.3.2, SVG Export Plug-In . SVG Version: 6.00 Build 0)  -->
<svg version="1.1" id="svg13" xmlns="http://www.w3.org/2000/svg" xmlns:xlink="http://www.w3.org/1999/xlink" x="0px" y="0px"
	 viewBox="0 0 352 352" style="enable-background:new 0 0 352 352;" xml:space="preserve">
<style type="text/css">
	.st0{fill-rule:evenodd;clip-rule:evenodd;fill:#FFFFFF;}
</style>
<path class="st0" d="M176,0C78.8,0,0,78.8,0,176s78.8,176,176,176s176-78.8,176-176S273.2,0,176,0z M284.8,227.7
	c-16.8,12.3-35.6,21.6-55.5,27.6c-4.5-6-8.5-12.3-11.9-19c6.5-2.4,12.8-5.3,18.8-8.8c-1.6-1.1-3.1-2.3-4.6-3.5
	c-35.7,16.3-74.9,16.3-110.9,0c-1.5,1.2-3,2.4-4.6,3.5c6,3.5,12.2,6.4,18.7,8.8c-3.4,6.7-7.4,13-11.9,19
	c-19.9-6-38.7-15.3-55.5-27.6c-3.9-40.3,3.9-81.2,32.5-123.2c14.4-6.6,29.6-11.2,45.3-13.8c2.2,3.8,4.1,7.7,5.9,11.7
	c16.6-2.5,33.5-2.5,50.2,0c1.7-4,3.7-7.9,5.8-11.7c15.6,2.6,30.8,7.2,45.2,13.8C277,140.4,289.3,181,284.8,227.7z M232.2,181.2
	c0,11.9-8.7,21.8-19.7,21.8c-10.8,0-19.7-9.8-19.7-21.8s8.7-21.8,19.7-21.8S232.4,169.2,232.2,181.2z M159.3,181.2
	c0,11.9-8.7,21.8-19.7,21.8c-10.8,0-19.7-9.8-19.7-21.8s8.7-21.8,19.7-21.8S159.5,169.2,159.3,181.2z"/>
</svg>
